<?xml version="1.0" encoding="UTF-8"?>
<svg width="91px" height="38px" viewBox="0 0 91 38" version="1.1" xmlns="http://www.w3.org/2000/svg" xmlns:xlink="http://www.w3.org/1999/xlink">
    <!-- Generator: Sketch 51.2 (57519) - http://www.bohemiancoding.com/sketch -->
    <title>氚云新logo</title>
    <desc>Created with Sketch.</desc>
    <defs></defs>
    <g id="顶部栏样式" stroke="none" stroke-width="1" fill="none" fill-rule="evenodd">
        <g id="顶部状态栏_有客服-新版logo" transform="translate(-20.000000, -193.000000)">
            <g id="Group-9" transform="translate(0.000000, 151.000000)">
                <g id="普通用户_搜索" transform="translate(0.000000, 33.000000)">
                    <g id="Group-3" transform="translate(20.000000, 9.000000)">
                        <g id="氚云新logo">
                            <path d="M65.3586332,18.6876304 L65.3586332,24.3428962 C65.3586332,24.9475291 65.6209273,25.5083899 66.0136385,25.8970481 C66.4068364,26.3285165 66.9747348,26.5444911 67.5859433,26.5444911 L67.5859433,29.3940101 C66.1888257,29.3940101 64.9221251,28.8326684 63.9610289,27.9259595 C63.044216,27.0192506 62.4763176,25.7243646 62.4763176,24.3428962 L62.4763176,18.6876304 L65.3586332,18.6876304 Z" id="Fill-3" fill="#042432"></path>
                            <path d="M52.4310856,21.0619089 L52.4310856,26.3285165 C52.4310856,27.1058329 52.2125882,27.8393772 51.906984,28.4873013 C51.5575829,29.1347443 51.0334813,29.6960861 50.4222727,30.1275544 L48.7623743,27.8393772 C48.9808717,27.6666937 49.1988824,27.4079089 49.3302727,27.1491241 C49.4611765,26.9331494 49.5487701,26.6310734 49.5487701,26.3285165 L49.5487701,21.0619089 L52.4310856,21.0619089 Z" id="Fill-5" fill="#042432"></path>
                            <path d="M65.6644807,12.6437063 L50.7716251,12.6437063 C49.9852294,12.6437063 49.2426305,12.4710228 48.5876251,12.1256557 C47.9326198,11.7802886 47.3647214,11.262238 46.9282134,10.6580861 L49.2426305,9.0173519 C49.417331,9.27661772 49.6796251,9.44882025 49.9414326,9.6215038 C50.1599299,9.75137722 50.4660209,9.79466835 50.7716251,9.79466835 L65.6644807,9.79466835 L65.6644807,12.6437063 Z" id="Fill-7" fill="#042432"></path>
                            <polygon id="Fill-9" fill="#042432" points="53.9595936 28.3143291 56.8419091 28.3143291 56.8419091 21.0616203 53.9595936 21.0616203"></polygon>
                            <polygon id="Fill-11" fill="#042432" points="58.4147005 28.3143291 61.297016 28.3143291 61.297016 21.0616203 58.4147005 21.0616203"></polygon>
                            <polygon id="Fill-12" fill="#042432" points="74.8754813 12.6434177 88.1089251 12.6434177 88.1089251 9.79437975 74.8754813 9.79437975"></polygon>
                            <polygon id="Fill-13" fill="#042432" points="72.6043743 18.2125823 90.3362353 18.2125823 90.3362353 15.3635443 72.6043743 15.3635443"></polygon>
                            <path d="M78.6314455,16.9176481 L76.098531,26.1559772 C75.9238305,26.8900025 75.5306326,27.5374456 75.0503278,28.0987873 C74.5262262,28.616838 73.8712209,29.0483063 73.1724187,29.3075722 L72.1675257,26.6307367 C72.4736166,26.5446354 72.7354241,26.3719519 72.9101246,26.1559772 C73.1286219,25.9832937 73.2595257,25.7245089 73.3471193,25.4219519 L75.8362369,16.1836228 L78.6314455,16.9176481 Z" id="Fill-14" fill="#042432"></path>
                            <path d="M87.8470203,18.8170228 L89.5940257,25.4218076 C89.6811326,25.7243646 89.8558332,25.9403392 90.0305337,26.1558329 C90.249031,26.3718076 90.4675283,26.5444911 90.7731326,26.6310734 L89.7687262,29.3074278 C89.0699241,29.048643 88.4149187,28.6599848 87.9341273,28.098643 C87.4100257,27.5373013 87.0168278,26.8898582 86.8426139,26.1558329 L85.0518118,19.5510481 L87.8470203,18.8170228 Z" id="Fill-15" fill="#042432"></path>
                            <polygon id="Fill-16" fill="#042432" points="74.8754813 27.1055443 88.1089251 27.1055443 88.1089251 24.2565063 74.8754813 24.2565063"></polygon>
                            <g id="Group-21">
                                <path d="M34.1165832,3.8795156 C34.1165832,4.93016698 33.687174,5.87945682 32.9718208,6.58703836 C32.2766808,7.27366536 31.31581,7.69811682 30.2533797,7.69811682 L7.72690002,7.69811682 C6.66397675,7.69811682 5.70310594,7.27366536 5.00845896,6.58703836 C4.31282597,5.87945682 3.88390981,4.93016698 3.88390981,3.8795156 L6.72510963,3.8795156 C6.72510963,4.16215837 6.8271621,4.40484129 7.01154674,4.58660983 C7.19543839,4.76837837 7.46116921,4.88971983 7.72690002,4.88971983 L30.2533797,4.88971983 C30.5393238,4.88971983 30.7843483,4.76837837 30.968733,4.58660983 C31.1526246,4.40484129 31.2748904,4.16215837 31.2748904,3.8795156 L34.1165832,3.8795156 Z M8.58522536,13.0527353 L29.4147746,13.0527353 L29.4147746,10.2643182 L8.58522536,10.2643182 L8.58522536,13.0527353 Z M0,0 L38,0 L38,19.7002007 C35.3224785,18.4877607 32.5221983,17.5379835 29.6193726,16.8513566 C26.2057915,16.0429008 22.6487454,15.6184493 18.9896469,15.6184493 C15.3310413,15.6184493 11.7739952,16.0429008 8.36041413,16.8513566 C5.45808142,17.5379835 2.65730818,18.4877607 0,19.7002007 L0,0 Z" id="Fill-17" fill="#00B8EE"></path>
                                <path d="M17.5796466,34.2549123 L20.4208464,34.2549123 L20.4208464,22.8186012 L17.5796466,22.8186012 L17.5796466,34.2549123 Z M8.58522536,34.2549123 L11.4062119,34.2549123 L11.4062119,22.8186012 L8.58522536,22.8186012 L8.58522536,34.2549123 Z M26.5735748,34.2549123 L29.4147746,34.2549123 L29.4147746,22.8186012 L26.5735748,22.8186012 L26.5735748,34.2549123 Z M38,38 L0,38 L0,23.3643941 C2.84169283,21.9701856 5.8667843,20.899067 9.01463453,20.1520129 C12.2241106,19.4039842 15.5558525,19 18.9896469,19 C22.4239342,19 25.7763824,19.4039842 28.9651522,20.1520129 C32.1337087,20.899067 35.1588002,21.9701856 38,23.3643941 L38,38 Z" id="Fill-18" fill="#042432"></path>
                            </g>
                            <polygon id="Fill-1" fill="#042432" points="49.5487701 16.3563544 64.3107219 16.3563544 64.3107219 13.5073165 49.5487701 13.5073165"></polygon>
                            <polygon id="Fill-2" fill="#042432" points="48.5000802 20.0688101 65.3584385 20.0688101 65.3584385 17.2197722 48.5000802 17.2197722"></polygon>
                        </g>
                    </g>
                </g>
            </g>
        </g>
    </g>
</svg>